<mxfile host="app.diagrams.net" modified="2023-12-21T07:56:07.953Z" agent="Mozilla/5.0 (Macintosh; Intel Mac OS X 10_15_7) AppleWebKit/537.36 (KHTML, like Gecko) Chrome/119.0.0.0 Safari/537.36" etag="6oqa92jeSTBcmsbvJmm9" version="22.1.11" type="github">
  <diagram name="第 1 页" id="fkn3RHmA37efXT-bPKZf">
    <mxGraphModel dx="1314" dy="792" grid="1" gridSize="10" guides="1" tooltips="1" connect="1" arrows="1" fold="1" page="1" pageScale="1" pageWidth="827" pageHeight="1169" math="0" shadow="0">
      <root>
        <mxCell id="0" />
        <mxCell id="1" parent="0" />
        <mxCell id="16aFFa6vyJyTcEq_LD6p-1" value="" style="endArrow=none;html=1;rounded=0;" edge="1" parent="1">
          <mxGeometry width="50" height="50" relative="1" as="geometry">
            <mxPoint x="300" y="440" as="sourcePoint" />
            <mxPoint x="300" y="100" as="targetPoint" />
          </mxGeometry>
        </mxCell>
        <mxCell id="16aFFa6vyJyTcEq_LD6p-2" value="" style="endArrow=none;html=1;rounded=0;" edge="1" parent="1">
          <mxGeometry width="50" height="50" relative="1" as="geometry">
            <mxPoint x="580" y="450" as="sourcePoint" />
            <mxPoint x="580" y="110" as="targetPoint" />
          </mxGeometry>
        </mxCell>
        <mxCell id="16aFFa6vyJyTcEq_LD6p-3" value="从数据集中选择问题以及相应的答案" style="rounded=1;whiteSpace=wrap;html=1;" vertex="1" parent="1">
          <mxGeometry x="90" y="130" width="120" height="60" as="geometry" />
        </mxCell>
        <mxCell id="16aFFa6vyJyTcEq_LD6p-4" value="监督微调，人类专家标注答案" style="rounded=1;whiteSpace=wrap;html=1;" vertex="1" parent="1">
          <mxGeometry x="90" y="240" width="120" height="60" as="geometry" />
        </mxCell>
        <mxCell id="16aFFa6vyJyTcEq_LD6p-5" value="在数据上监督训练，实现特定任务" style="rounded=1;whiteSpace=wrap;html=1;" vertex="1" parent="1">
          <mxGeometry x="90" y="350" width="120" height="60" as="geometry" />
        </mxCell>
        <mxCell id="16aFFa6vyJyTcEq_LD6p-17" value="" style="edgeStyle=orthogonalEdgeStyle;rounded=0;orthogonalLoop=1;jettySize=auto;html=1;" edge="1" parent="1" source="16aFFa6vyJyTcEq_LD6p-6" target="16aFFa6vyJyTcEq_LD6p-7">
          <mxGeometry relative="1" as="geometry" />
        </mxCell>
        <mxCell id="16aFFa6vyJyTcEq_LD6p-6" value="模型采样算法采样出概率最高的四个答案" style="rounded=1;whiteSpace=wrap;html=1;" vertex="1" parent="1">
          <mxGeometry x="380" y="130" width="120" height="60" as="geometry" />
        </mxCell>
        <mxCell id="16aFFa6vyJyTcEq_LD6p-18" value="" style="edgeStyle=orthogonalEdgeStyle;rounded=0;orthogonalLoop=1;jettySize=auto;html=1;" edge="1" parent="1" source="16aFFa6vyJyTcEq_LD6p-7" target="16aFFa6vyJyTcEq_LD6p-8">
          <mxGeometry relative="1" as="geometry" />
        </mxCell>
        <mxCell id="16aFFa6vyJyTcEq_LD6p-7" value="人工标注排序四个答案的好坏程度" style="rounded=1;whiteSpace=wrap;html=1;" vertex="1" parent="1">
          <mxGeometry x="380" y="230" width="120" height="60" as="geometry" />
        </mxCell>
        <mxCell id="16aFFa6vyJyTcEq_LD6p-8" value="将这些数据训练奖励模型" style="rounded=1;whiteSpace=wrap;html=1;" vertex="1" parent="1">
          <mxGeometry x="380" y="350" width="120" height="60" as="geometry" />
        </mxCell>
        <mxCell id="16aFFa6vyJyTcEq_LD6p-20" style="edgeStyle=orthogonalEdgeStyle;rounded=0;orthogonalLoop=1;jettySize=auto;html=1;entryX=0.5;entryY=0;entryDx=0;entryDy=0;" edge="1" parent="1" source="16aFFa6vyJyTcEq_LD6p-9" target="16aFFa6vyJyTcEq_LD6p-10">
          <mxGeometry relative="1" as="geometry" />
        </mxCell>
        <mxCell id="16aFFa6vyJyTcEq_LD6p-9" value="监督策略生成问题" style="rounded=1;whiteSpace=wrap;html=1;" vertex="1" parent="1">
          <mxGeometry x="630" y="130" width="120" height="60" as="geometry" />
        </mxCell>
        <mxCell id="16aFFa6vyJyTcEq_LD6p-22" value="" style="edgeStyle=orthogonalEdgeStyle;rounded=0;orthogonalLoop=1;jettySize=auto;html=1;" edge="1" parent="1" source="16aFFa6vyJyTcEq_LD6p-10" target="16aFFa6vyJyTcEq_LD6p-11">
          <mxGeometry relative="1" as="geometry" />
        </mxCell>
        <mxCell id="16aFFa6vyJyTcEq_LD6p-10" value="PPO模型根据监督策略参数初始化" style="rounded=1;whiteSpace=wrap;html=1;" vertex="1" parent="1">
          <mxGeometry x="630" y="230" width="120" height="60" as="geometry" />
        </mxCell>
        <mxCell id="16aFFa6vyJyTcEq_LD6p-23" value="" style="edgeStyle=orthogonalEdgeStyle;rounded=0;orthogonalLoop=1;jettySize=auto;html=1;" edge="1" parent="1" source="16aFFa6vyJyTcEq_LD6p-11" target="16aFFa6vyJyTcEq_LD6p-12">
          <mxGeometry relative="1" as="geometry" />
        </mxCell>
        <mxCell id="16aFFa6vyJyTcEq_LD6p-11" value="监督策略生成答案" style="rounded=1;whiteSpace=wrap;html=1;" vertex="1" parent="1">
          <mxGeometry x="630" y="330" width="120" height="60" as="geometry" />
        </mxCell>
        <mxCell id="16aFFa6vyJyTcEq_LD6p-24" value="" style="edgeStyle=orthogonalEdgeStyle;rounded=0;orthogonalLoop=1;jettySize=auto;html=1;" edge="1" parent="1" source="16aFFa6vyJyTcEq_LD6p-12" target="16aFFa6vyJyTcEq_LD6p-13">
          <mxGeometry relative="1" as="geometry" />
        </mxCell>
        <mxCell id="16aFFa6vyJyTcEq_LD6p-12" value="奖励模型计算该答案的得分" style="rounded=1;whiteSpace=wrap;html=1;" vertex="1" parent="1">
          <mxGeometry x="630" y="420" width="120" height="60" as="geometry" />
        </mxCell>
        <mxCell id="16aFFa6vyJyTcEq_LD6p-13" value="根据这个得分通过PPO去更新监督策略的参数" style="rounded=1;whiteSpace=wrap;html=1;" vertex="1" parent="1">
          <mxGeometry x="630" y="510" width="120" height="60" as="geometry" />
        </mxCell>
        <mxCell id="16aFFa6vyJyTcEq_LD6p-14" value="步骤一：收集数据并训练一个监督策略" style="text;html=1;align=center;verticalAlign=middle;resizable=0;points=[];autosize=1;strokeColor=none;fillColor=none;" vertex="1" parent="1">
          <mxGeometry x="35" y="50" width="230" height="30" as="geometry" />
        </mxCell>
        <mxCell id="16aFFa6vyJyTcEq_LD6p-15" value="步骤二：收集数据并训练一个监督策略" style="text;html=1;align=center;verticalAlign=middle;resizable=0;points=[];autosize=1;strokeColor=none;fillColor=none;" vertex="1" parent="1">
          <mxGeometry x="325" y="50" width="230" height="30" as="geometry" />
        </mxCell>
        <mxCell id="16aFFa6vyJyTcEq_LD6p-16" value="步骤一：收集数据并训练一个监督策略" style="text;html=1;align=center;verticalAlign=middle;resizable=0;points=[];autosize=1;strokeColor=none;fillColor=none;" vertex="1" parent="1">
          <mxGeometry x="575" y="50" width="230" height="30" as="geometry" />
        </mxCell>
        <mxCell id="16aFFa6vyJyTcEq_LD6p-19" style="edgeStyle=orthogonalEdgeStyle;rounded=0;orthogonalLoop=1;jettySize=auto;html=1;entryX=1.017;entryY=0.4;entryDx=0;entryDy=0;entryPerimeter=0;" edge="1" parent="1" source="16aFFa6vyJyTcEq_LD6p-13" target="16aFFa6vyJyTcEq_LD6p-10">
          <mxGeometry relative="1" as="geometry">
            <Array as="points">
              <mxPoint x="810" y="540" />
              <mxPoint x="810" y="254" />
            </Array>
          </mxGeometry>
        </mxCell>
      </root>
    </mxGraphModel>
  </diagram>
</mxfile>
